<svg viewBox="0 0 200 200" xmlns="http://www.w3.org/2000/svg">
  <defs>
    <radialGradient id="bg-angry" cx="50%" cy="40%" r="70%">
      <stop offset="0%" stop-color="#502a2a"/>
      <stop offset="100%" stop-color="#221010"/>
    </radialGradient>
    <radialGradient id="fur-angry" cx="45%" cy="35%" r="70%">
      <stop offset="0%" stop-color="#f0c384"/>
      <stop offset="100%" stop-color="#d99e56"/>
    </radialGradient>
  </defs>
  <circle cx="100" cy="100" r="98" fill="url(#bg-angry)"/>
  <circle cx="52" cy="55" r="26" fill="#c98a45"/>
  <circle cx="148" cy="55" r="26" fill="#c98a45"/>
  <circle cx="52" cy="57" r="15" fill="#8a5a2e"/>
  <circle cx="148" cy="57" r="15" fill="#8a5a2e"/>
  <ellipse cx="100" cy="112" rx="72" ry="66" fill="url(#fur-angry)"/>
  <ellipse cx="48" cy="128" rx="26" ry="22" fill="#f3cd94"/>
  <ellipse cx="152" cy="128" rx="26" ry="22" fill="#f3cd94"/>
  <!-- angry eyebrows -->
  <path d="M58 88 L88 98" stroke="#3a2410" stroke-width="7" stroke-linecap="round"/>
  <path d="M142 88 L112 98" stroke="#3a2410" stroke-width="7" stroke-linecap="round"/>
  <!-- angry eyes -->
  <ellipse cx="76" cy="104" rx="7" ry="8" fill="#3a2410"/>
  <ellipse cx="124" cy="104" rx="7" ry="8" fill="#3a2410"/>
  <ellipse cx="100" cy="120" rx="9" ry="7" fill="#5c3a1e"/>
  <!-- clenched mouth -->
  <path d="M78 140 Q100 132 122 140" stroke="#5c3a1e" stroke-width="7" fill="none" stroke-linecap="round"/>
  <!-- steam -->
  <path d="M36 60 q6 -10 0 -20" stroke="#ff8f5a" stroke-width="5" fill="none" stroke-linecap="round" opacity="0.8"/>
  <path d="M164 60 q-6 -10 0 -20" stroke="#ff8f5a" stroke-width="5" fill="none" stroke-linecap="round" opacity="0.8"/>
</svg>
