<svg viewBox="0 0 200 200" xmlns="http://www.w3.org/2000/svg">
  <defs>
    <radialGradient id="bg-laugh" cx="50%" cy="40%" r="70%">
      <stop offset="0%" stop-color="#3a3a55"/>
      <stop offset="100%" stop-color="#161830"/>
    </radialGradient>
    <radialGradient id="fur-laugh" cx="45%" cy="35%" r="70%">
      <stop offset="0%" stop-color="#f0c384"/>
      <stop offset="100%" stop-color="#d99e56"/>
    </radialGradient>
  </defs>
  <circle cx="100" cy="100" r="98" fill="url(#bg-laugh)"/>
  <circle cx="52" cy="55" r="26" fill="#c98a45" transform="rotate(-8 52 55)"/>
  <circle cx="148" cy="55" r="26" fill="#c98a45" transform="rotate(8 148 55)"/>
  <circle cx="52" cy="57" r="15" fill="#8a5a2e"/>
  <circle cx="148" cy="57" r="15" fill="#8a5a2e"/>
  <ellipse cx="100" cy="112" rx="72" ry="66" fill="url(#fur-laugh)"/>
  <ellipse cx="48" cy="128" rx="27" ry="23" fill="#f3cd94"/>
  <ellipse cx="152" cy="128" rx="27" ry="23" fill="#f3cd94"/>
  <ellipse cx="48" cy="133" rx="13" ry="10" fill="#f0a3a3" opacity="0.6"/>
  <ellipse cx="152" cy="133" rx="13" ry="10" fill="#f0a3a3" opacity="0.6"/>
  <!-- squeezed shut laughing eyes -->
  <path d="M60 96 Q74 108 88 96" stroke="#3a2410" stroke-width="7" fill="none" stroke-linecap="round"/>
  <path d="M112 96 Q126 108 140 96" stroke="#3a2410" stroke-width="7" fill="none" stroke-linecap="round"/>
  <ellipse cx="100" cy="118" rx="9" ry="7" fill="#5c3a1e"/>
  <!-- wide open laughing mouth -->
  <path d="M72 130 Q100 168 128 130 Q100 148 72 130 Z" fill="#5c2a1e"/>
  <path d="M84 134 h32 v8 a16 16 0 01-32 0 Z" fill="#ff8f8f"/>
  <!-- laugh tears -->
  <path d="M40 110 q6 10 0 18" stroke="#7ecbff" stroke-width="5" fill="none" stroke-linecap="round"/>
  <path d="M160 110 q-6 10 0 18" stroke="#7ecbff" stroke-width="5" fill="none" stroke-linecap="round"/>
</svg>
